<?xml version="1.0" standalone="no"?>
<!DOCTYPE svg PUBLIC "-//W3C//DTD SVG 20010904//EN"
 "http://www.w3.org/TR/2001/REC-SVG-20010904/DTD/svg10.dtd">
<svg version="1.0" xmlns="http://www.w3.org/2000/svg"
 width="153.000000pt" height="39.000000pt" viewBox="0 0 153.000000 39.000000"
 preserveAspectRatio="xMidYMid meet">

<g transform="translate(0.000000,39.000000) scale(0.100000,-0.100000)"
fill="#000000" stroke="none">
<path d="M40 215 l0 -135 95 0 c95 0 95 0 95 25 0 24 -2 25 -65 25 l-65 0 0
30 c0 29 2 30 46 30 41 0 45 2 42 23 -2 18 -10 23 -45 25 -40 3 -43 5 -43 33
l0 29 66 0 c62 0 65 1 62 23 -3 21 -8 22 -95 25 l-93 3 0 -136z"/>
<path d="M697 344 c-4 -4 -7 -65 -7 -136 l0 -128 30 0 31 0 -3 133 c-3 124 -4
132 -23 135 -12 2 -24 0 -28 -4z"/>
<path d="M256 258 c4 -7 18 -27 31 -44 13 -17 23 -34 23 -39 0 -4 -13 -24 -30
-45 -36 -45 -37 -50 -7 -50 13 0 30 12 42 30 11 16 22 30 25 30 3 0 14 -14 23
-30 15 -24 25 -30 53 -30 l36 0 -36 49 c-20 27 -36 52 -36 56 0 3 11 21 25 39
30 40 31 46 6 46 -11 0 -29 -12 -41 -27 l-22 -28 -20 28 c-14 19 -29 27 -49
27 -21 0 -28 -4 -23 -12z"/>
<path d="M470 145 l0 -125 30 0 c27 0 30 3 30 34 l0 34 43 -5 c54 -6 78 17 84
84 6 62 -22 103 -71 103 -17 0 -37 -5 -44 -12 -9 -9 -12 -9 -12 0 0 7 -13 12
-30 12 l-30 0 0 -125z m118 83 c17 -17 15 -93 -3 -108 -8 -6 -23 -9 -35 -5
-17 5 -20 15 -20 60 0 51 6 62 36 64 5 1 15 -4 22 -11z"/>
<path d="M806 239 c-29 -35 -33 -76 -11 -118 17 -33 33 -41 84 -41 52 0 91 36
91 85 0 69 -33 104 -97 105 -34 0 -46 -5 -67 -31z m102 -32 c15 -32 6 -74 -21
-91 -24 -15 -51 15 -51 58 0 65 46 87 72 33z"/>
<path d="M1000 175 l0 -95 30 0 c29 0 29 0 32 68 l3 67 33 3 c26 3 32 7 32 28
0 26 -18 31 -51 14 -13 -7 -19 -7 -19 0 0 5 -13 10 -30 10 l-30 0 0 -95z"/>
<path d="M1173 246 c-23 -20 -28 -32 -28 -71 0 -39 5 -51 28 -71 39 -33 105
-33 136 0 19 21 20 24 6 30 -9 3 -26 -1 -38 -9 -27 -19 -42 -19 -61 1 -33 32
-20 44 49 44 72 0 78 7 50 59 -25 49 -95 57 -142 17z m96 -25 c13 -24 5 -31
-36 -31 -34 0 -43 16 -21 38 18 18 46 15 57 -7z"/>
<path d="M1360 175 l0 -95 30 0 30 0 0 64 c0 67 6 78 44 80 14 1 22 9 24 24 4
25 -16 29 -51 11 -16 -9 -22 -9 -25 0 -2 6 -15 11 -28 11 -24 0 -24 -1 -24
-95z"/>
</g>
</svg>
